<svg version="1.1" id="Layer_1" xmlns="http://www.w3.org/2000/svg" xmlns:xlink="http://www.w3.org/1999/xlink" x="0px" y="0px"
	 width="100%" viewBox="0 0 3000 1688" enable-background="new 0 0 3000 1688" xml:space="preserve">
<path fill="#010333" opacity="1.000000" stroke="none" 
	d="
M2706.000000,1690.000000 
	C1804.000000,1690.000000 903.000000,1690.000000 2.000000,1690.000000 
	C2.000000,1127.333374 2.000000,564.666687 2.000000,2.000000 
	C1002.000000,2.000000 2002.000000,2.000000 3002.000000,2.000000 
	C3002.000000,564.666687 3002.000000,1127.333374 3002.000000,1690.000000 
	C2903.666748,1690.000000 2805.333252,1690.000000 2706.000000,1690.000000 
M1234.121338,858.883911 
	C1237.663208,862.408508 1241.092896,866.055054 1244.769165,869.433472 
	C1253.754761,877.691711 1264.915161,877.664795 1273.395142,869.516663 
	C1282.101685,861.150879 1282.802490,849.002258 1274.071533,840.122192 
	C1249.083130,814.706604 1223.763794,789.615662 1198.517456,764.454468 
	C1191.639038,757.599243 1183.396484,756.305603 1174.557251,759.810364 
	C1165.478882,763.409851 1161.403564,770.481506 1161.424316,780.173218 
	C1161.479126,805.823242 1161.296021,831.475220 1161.591064,857.121948 
	C1161.638428,861.238586 1162.868652,865.792053 1164.931274,869.342285 
	C1169.373779,876.988281 1178.595459,880.261597 1187.678101,877.704407 
	C1196.114502,875.329163 1201.532471,869.427856 1202.430054,860.669739 
	C1203.241333,852.751648 1202.786865,844.708984 1203.061157,836.727173 
	C1203.130737,834.704651 1203.850586,832.704468 1204.606934,829.092957 
	C1214.899536,839.485229 1224.009766,848.683777 1234.121338,858.883911 
M1476.663452,809.890137 
	C1475.076416,806.298889 1473.489380,802.707703 1471.857422,799.014648 
	C1457.500122,799.014648 1443.861328,799.140930 1430.227783,798.934570 
	C1426.347778,798.875793 1424.091064,800.597229 1422.057861,803.511475 
	C1418.336792,808.845581 1414.436646,814.054871 1410.001099,820.155151 
	C1405.358521,813.848267 1401.789429,808.676147 1397.847656,803.805725 
	C1396.288208,801.879089 1393.974121,799.404724 1391.875488,799.276550 
	C1383.419678,798.760071 1374.913940,799.062683 1364.679565,799.062683 
	C1375.666382,812.387085 1385.335327,824.113342 1395.347412,836.255737 
	C1384.855835,849.180908 1374.722290,861.665100 1363.344116,875.682495 
	C1371.558716,875.682495 1377.510620,875.202148 1383.348633,875.811279 
	C1389.785522,876.482971 1393.746582,873.912659 1397.659912,869.043457 
	C1412.895630,850.085876 1428.559326,831.472717 1443.989014,812.669983 
	C1445.592773,810.715637 1446.697998,808.352051 1448.951904,804.686096 
	C1460.549438,830.328552 1470.784912,852.959717 1480.907959,875.342041 
	C1488.364502,875.342041 1494.952026,875.342041 1502.135986,875.342041 
	C1513.401855,850.275940 1524.640381,825.270386 1536.256958,799.423889 
	C1527.044067,799.423889 1519.175659,799.423889 1511.093506,799.423889 
	C1503.832031,813.238831 1499.575195,828.282288 1491.090332,843.099548 
	C1486.030151,831.358459 1481.694580,821.298767 1476.663452,809.890137 
M1701.709106,876.933777 
	C1712.394409,877.792786 1721.671265,874.208130 1729.858765,866.902832 
	C1730.758301,870.414551 1731.395630,872.902893 1731.948242,875.060303 
	C1739.358276,875.060303 1746.204224,875.060303 1753.264893,875.060303 
	C1753.264893,831.059082 1753.264893,787.682678 1753.264893,744.106323 
	C1745.459839,744.106323 1738.215088,744.106323 1729.950439,744.106323 
	C1729.950439,764.599854 1729.950439,784.676880 1729.950439,805.644165 
	C1728.023438,804.513062 1727.220459,804.130188 1726.514648,803.614502 
	C1709.665649,791.305481 1688.533936,794.506653 1676.570557,811.461975 
	C1669.077515,822.081726 1667.261230,833.990845 1669.721069,846.664062 
	C1672.930542,863.200012 1683.393311,873.599915 1701.709106,876.933777 
M1545.539673,865.430420 
	C1555.201660,875.507385 1567.192383,879.137268 1580.833984,878.129333 
	C1597.219360,876.918701 1609.343872,868.816528 1615.766113,853.930481 
	C1622.287598,838.814331 1620.668091,823.856628 1609.847656,810.897461 
	C1595.054932,793.181152 1567.453369,790.790039 1549.662598,804.978699 
	C1529.503784,821.055908 1530.524780,850.552551 1545.539673,865.430420 
M1362.257202,814.787476 
	C1358.594116,807.321350 1353.060791,801.562927 1345.292358,798.695557 
	C1321.733643,790.000183 1294.567627,800.079407 1289.179688,828.182678 
	C1285.957397,844.990112 1289.237183,860.510803 1304.118652,870.686829 
	C1319.008057,880.868225 1335.341675,880.927185 1351.444702,873.002014 
	C1357.777100,869.885498 1362.325439,864.683960 1365.791748,857.427246 
	C1359.565796,854.646851 1353.926636,852.128601 1348.459595,849.687195 
	C1337.650513,860.270325 1329.982056,862.603027 1321.070435,858.277710 
	C1314.686279,855.179016 1312.631348,851.271301 1313.313599,842.335571 
	C1331.292480,842.335571 1349.373291,842.335571 1367.676392,842.335571 
	C1367.959717,832.542908 1366.490234,824.150452 1362.257202,814.787476 
M1769.859375,819.002380 
	C1768.813843,822.497131 1767.395630,825.927856 1766.782959,829.496887 
	C1762.658081,853.524353 1775.393433,873.367432 1797.899780,877.316162 
	C1804.023071,878.390503 1810.612061,878.414551 1816.753052,877.442017 
	C1828.726440,875.545654 1837.934448,869.275818 1843.556641,857.414917 
	C1837.108032,854.501587 1831.463623,851.951477 1825.343872,849.186646 
	C1819.311401,859.499146 1810.730469,862.261841 1800.305176,858.817261 
	C1793.392212,856.533203 1790.845581,851.969177 1790.850098,842.814758 
	C1808.327026,842.814758 1825.825562,842.814758 1844.239258,842.814758 
	C1844.239258,837.803040 1844.368042,833.549866 1844.216187,829.306824 
	C1843.677856,814.267639 1833.335205,801.019043 1818.702393,797.290222 
	C1798.601929,792.168091 1779.422485,799.476685 1769.859375,819.002380 
M1655.891968,837.000122 
	C1655.891968,824.561340 1655.891968,812.122620 1655.891968,799.537231 
	C1647.294189,799.537231 1640.115112,799.537231 1632.815552,799.537231 
	C1632.815552,825.062439 1632.815552,850.057312 1632.815552,875.131470 
	C1640.670898,875.131470 1647.818237,875.131470 1655.891968,875.131470 
	C1655.891968,862.730652 1655.891968,850.864685 1655.891968,837.000122 
M1236.766113,784.263428 
	C1237.221191,785.864014 1237.498169,787.542725 1238.160278,789.052490 
	C1242.715820,799.440491 1253.035522,804.552490 1263.465698,801.674316 
	C1273.083740,799.020325 1279.129028,790.172119 1278.507324,779.658569 
	C1277.896118,769.323303 1269.627197,761.015991 1259.184570,760.246338 
	C1248.989990,759.494934 1239.966187,766.226074 1237.225464,776.782410 
	C1236.732422,778.681702 1236.794067,780.725159 1236.766113,784.263428 
M1455.427124,867.226990 
	C1448.468628,858.514221 1441.510132,849.801392 1433.923828,840.302551 
	C1429.018555,846.373962 1424.917603,851.449890 1420.948242,856.362793 
	C1431.952759,875.812744 1431.952759,875.811523 1453.103271,875.684937 
	C1455.332642,875.671631 1457.562256,875.683167 1461.157349,875.683167 
	C1459.040283,872.499756 1457.653687,870.414795 1455.427124,867.226990 
M1292.596069,930.606384 
	C1289.514648,928.688843 1286.442505,926.756042 1283.348633,924.858826 
	C1280.878784,923.344177 1276.952881,922.039429 1279.009399,918.531677 
	C1280.004028,916.835266 1283.959473,916.562988 1286.641602,916.277039 
	C1288.441895,916.085144 1290.360229,917.001099 1292.760986,917.541992 
	C1293.371460,915.063904 1293.875000,913.020325 1294.447632,910.695801 
	C1291.230469,909.803650 1288.737427,908.956482 1286.176636,908.459106 
	C1284.576050,908.148315 1282.859131,908.216492 1281.218628,908.371155 
	C1275.321167,908.927307 1271.122070,912.034790 1269.952637,916.561890 
	C1268.504761,922.166138 1270.275513,926.645447 1275.647217,930.154419 
	C1278.410156,931.959290 1281.657471,933.088257 1284.210449,935.120117 
	C1285.425659,936.087341 1286.107178,938.518982 1285.914429,940.155762 
	C1285.803345,941.098389 1283.422241,942.514160 1282.134888,942.441467 
	C1277.972656,942.206360 1273.843628,941.380859 1268.274292,940.576782 
	C1269.176025,943.593506 1269.188599,946.488770 1270.642456,947.924438 
	C1274.004150,951.244324 1286.129761,950.706055 1290.584473,947.631653 
	C1295.357666,944.337402 1296.237061,939.652283 1292.596069,930.606384 
M1501.441406,949.102966 
	C1501.441406,939.011658 1501.441406,928.920349 1501.441406,918.334656 
	C1498.754395,918.494812 1496.556519,918.625854 1493.715698,918.795166 
	C1493.715698,924.503540 1493.883545,929.779419 1493.659546,935.038635 
	C1493.496582,938.867188 1492.368042,942.588074 1487.653687,942.749084 
	C1482.388306,942.928955 1482.275146,938.916748 1482.262573,935.112610 
	C1482.244507,929.633240 1482.257935,924.153748 1482.257935,918.212158 
	C1478.603760,918.509033 1476.408447,918.687378 1473.768311,918.901855 
	C1473.768311,925.961487 1473.541016,932.587769 1473.825317,939.192139 
	C1474.188721,947.633545 1479.810303,952.269287 1487.826172,949.511536 
	C1492.292236,947.975037 1495.813477,949.091248 1501.441406,949.102966 
M1770.110107,919.119995 
	C1762.702271,919.119995 1755.294312,919.119995 1747.076660,919.119995 
	C1746.638550,929.183594 1746.498047,939.200012 1747.140747,949.720947 
	C1750.484253,949.469482 1752.639648,949.307434 1755.776855,949.071533 
	C1755.776855,942.945007 1755.671265,937.350891 1755.813843,931.763062 
	C1755.909058,928.033752 1757.614624,925.202271 1761.717163,925.191711 
	C1766.376465,925.179749 1766.642578,928.841614 1766.708252,932.237610 
	C1766.816284,937.809570 1766.737427,943.385132 1766.737427,949.575378 
	C1770.255493,949.396484 1772.686401,949.272827 1775.660645,949.121582 
	C1775.660645,942.102173 1776.129028,935.786621 1775.472168,929.590454 
	C1775.119019,926.260376 1772.834595,923.135010 1770.110107,919.119995 
M1700.012207,931.852539 
	C1699.647705,930.244507 1699.545532,928.516724 1698.875000,927.048462 
	C1695.336548,919.301147 1687.981689,916.007629 1679.982666,918.432434 
	C1672.770020,920.618713 1668.829468,927.945496 1670.061523,936.879150 
	C1671.193115,945.085571 1676.703979,950.012756 1684.835205,950.088135 
	C1694.503174,950.177795 1698.812134,945.433655 1700.012207,931.852539 
M1356.414551,917.923828 
	C1343.653809,918.929260 1337.650391,926.529663 1340.271240,938.362061 
	C1341.932129,945.861267 1347.525879,950.212463 1355.343506,950.086487 
	C1363.197632,949.959961 1368.465088,945.477539 1369.839844,937.750549 
	C1371.564819,928.054810 1367.865723,921.979858 1356.414551,917.923828 
M1211.114136,911.277344 
	C1210.172607,910.472534 1209.249146,908.994812 1208.286621,908.968811 
	C1200.351562,908.754822 1192.399780,908.565918 1184.472412,908.870361 
	C1179.265503,909.070312 1180.059570,912.396912 1181.489258,915.889648 
	C1183.425293,916.026611 1185.070679,916.084229 1186.700439,916.275513 
	C1188.203735,916.452087 1189.690308,916.772156 1191.873047,917.147461 
	C1191.873047,928.177795 1191.873047,938.635925 1191.873047,949.754700 
	C1195.146362,949.434021 1197.538818,949.199646 1200.636719,948.896118 
	C1200.636719,937.756775 1200.636719,927.290466 1200.636719,917.738098 
	C1204.330322,914.669434 1209.852417,918.902039 1211.114136,911.277344 
M1837.158203,949.791992 
	C1842.174194,948.534363 1845.523438,945.694702 1845.569946,940.203857 
	C1845.613647,935.042175 1841.860596,932.854919 1837.829712,930.900574 
	C1835.456909,929.750061 1833.237305,928.283875 1830.948730,926.959656 
	C1831.227661,926.154480 1831.506714,925.349304 1831.785645,924.544189 
	C1835.430542,924.875000 1839.075562,925.205811 1843.254761,925.585144 
	C1843.658691,923.715881 1844.036743,921.966003 1844.756470,918.635132 
	C1838.575317,918.635132 1833.277710,917.895081 1828.362671,918.945496 
	C1825.882812,919.475525 1822.762573,923.045715 1822.370239,925.613708 
	C1821.975464,928.198608 1824.108398,931.670044 1826.064697,933.956604 
	C1827.654297,935.814636 1830.737061,936.317932 1832.936157,937.759705 
	C1834.349365,938.686096 1835.361206,940.224609 1836.570190,941.506897 
	C1831.651855,946.520203 1826.719360,940.951721 1822.402710,942.359741 
	C1821.151001,946.888123 1822.464844,949.424194 1826.759888,949.784546 
	C1829.723755,950.033203 1832.716675,949.934448 1837.158203,949.791992 
M1565.084229,942.960999 
	C1561.917847,942.857300 1560.208740,941.376953 1560.258057,938.053650 
	C1560.316284,934.125122 1560.271729,930.195007 1560.271729,925.869385 
	C1562.416748,925.455017 1564.159302,925.504089 1565.451660,924.765564 
	C1566.885620,923.946350 1567.908691,922.408020 1569.110596,921.182800 
	C1567.974976,920.228394 1566.963501,919.023987 1565.672363,918.382568 
	C1564.031250,917.567261 1561.590088,917.740295 1560.494141,916.559143 
	C1556.164917,911.893433 1556.388550,911.815918 1552.753418,916.807617 
	C1551.282959,918.826660 1549.386230,920.535217 1548.678467,921.304199 
	C1549.942017,925.782532 1551.193481,928.929749 1551.651855,932.188599 
	C1552.156250,935.775330 1551.479004,939.547058 1552.124146,943.091125 
	C1553.269775,949.384583 1563.353027,952.974976 1568.105957,948.749207 
	C1570.304443,946.794678 1570.524658,944.044128 1565.084229,942.960999 
M1647.991699,773.817139 
	C1645.003662,773.825684 1642.015747,773.841125 1639.027710,773.841064 
	C1634.565552,773.840942 1632.547485,776.129028 1632.094727,780.518616 
	C1631.114258,790.021912 1633.099121,792.388916 1642.726318,792.528137 
	C1644.054077,792.547363 1645.382812,792.510254 1646.710449,792.532593 
	C1650.863403,792.602356 1654.750000,792.455872 1655.792114,787.097961 
	C1657.107178,780.336731 1655.544434,776.764465 1647.991699,773.817139 
M1416.761719,915.700195 
	C1416.761719,926.874939 1416.761719,938.049683 1416.761719,949.716003 
	C1420.437012,949.453125 1422.610229,949.297668 1424.989014,949.127563 
	C1424.989014,934.677551 1424.989014,920.818970 1424.989014,906.704102 
	C1422.212402,906.704102 1419.973145,906.704102 1417.367065,906.704102 
	C1417.146118,909.328796 1416.954102,911.608032 1416.761719,915.700195 
M1175.526123,921.413208 
	C1175.526123,917.515686 1175.526123,913.618225 1175.526123,909.397217 
	C1172.005615,909.397217 1169.554688,909.397217 1166.979004,909.397217 
	C1166.979004,923.091858 1166.979004,936.171570 1166.979004,949.866333 
	C1170.178955,949.482666 1172.618042,949.190247 1175.526123,948.841553 
	C1175.526123,939.857483 1175.526123,931.578308 1175.526123,921.413208 
M1614.761719,927.630005 
	C1614.761719,934.813843 1614.761719,941.997742 1614.761719,949.672363 
	C1618.384033,949.442749 1620.565308,949.304443 1623.000244,949.150085 
	C1623.000244,938.727234 1623.000244,928.865662 1623.000244,918.683594 
	C1620.235352,918.683594 1617.996460,918.683594 1615.383179,918.683594 
	C1615.157471,921.283875 1614.959717,923.561951 1614.761719,927.630005 
M1617.734741,914.373962 
	C1621.595337,914.725037 1624.674561,913.688538 1623.316772,909.155884 
	C1622.919434,907.829529 1619.371704,906.231506 1617.852539,906.690918 
	C1613.781494,907.922058 1613.036865,910.744873 1617.734741,914.373962 
z"/>
<path fill="#383BF8" opacity="1.000000" stroke="none" 
	d="
M1233.620605,858.383118 
	C1224.009766,848.683777 1214.899536,839.485229 1204.606934,829.092957 
	C1203.850586,832.704468 1203.130737,834.704651 1203.061157,836.727173 
	C1202.786865,844.708984 1203.241333,852.751648 1202.430054,860.669739 
	C1201.532471,869.427856 1196.114502,875.329163 1187.678101,877.704407 
	C1178.595459,880.261597 1169.373779,876.988281 1164.931274,869.342285 
	C1162.868652,865.792053 1161.638428,861.238586 1161.591064,857.121948 
	C1161.296021,831.475220 1161.479126,805.823242 1161.424316,780.173218 
	C1161.403564,770.481506 1165.478882,763.409851 1174.557251,759.810364 
	C1183.396484,756.305603 1191.639038,757.599243 1198.517456,764.454468 
	C1223.763794,789.615662 1249.083130,814.706604 1274.071533,840.122192 
	C1282.802490,849.002258 1282.101685,861.150879 1273.395142,869.516663 
	C1264.915161,877.664795 1253.754761,877.691711 1244.769165,869.433472 
	C1241.092896,866.055054 1237.663208,862.408508 1233.620605,858.383118 
z"/>
<path fill="#F7F7F9" opacity="1.000000" stroke="none" 
	d="
M1477.011230,810.564575 
	C1481.694580,821.298767 1486.030151,831.358459 1491.090332,843.099548 
	C1499.575195,828.282288 1503.832031,813.238831 1511.093506,799.423889 
	C1519.175659,799.423889 1527.044067,799.423889 1536.256958,799.423889 
	C1524.640381,825.270386 1513.401855,850.275940 1502.135986,875.342041 
	C1494.952026,875.342041 1488.364502,875.342041 1480.907959,875.342041 
	C1470.784912,852.959717 1460.549438,830.328552 1448.951904,804.686096 
	C1446.697998,808.352051 1445.592773,810.715637 1443.989014,812.669983 
	C1428.559326,831.472717 1412.895630,850.085876 1397.659912,869.043457 
	C1393.746582,873.912659 1389.785522,876.482971 1383.348633,875.811279 
	C1377.510620,875.202148 1371.558716,875.682495 1363.344116,875.682495 
	C1374.722290,861.665100 1384.855835,849.180908 1395.347412,836.255737 
	C1385.335327,824.113342 1375.666382,812.387085 1364.679565,799.062683 
	C1374.913940,799.062683 1383.419678,798.760071 1391.875488,799.276550 
	C1393.974121,799.404724 1396.288208,801.879089 1397.847656,803.805725 
	C1401.789429,808.676147 1405.358521,813.848267 1410.001099,820.155151 
	C1414.436646,814.054871 1418.336792,808.845581 1422.057861,803.511475 
	C1424.091064,800.597229 1426.347778,798.875793 1430.227783,798.934570 
	C1443.861328,799.140930 1457.500122,799.014648 1471.857422,799.014648 
	C1473.489380,802.707703 1475.076416,806.298889 1477.011230,810.564575 
z"/>
<path fill="#F7F7F9" opacity="1.000000" stroke="none" 
	d="
M1700.891846,876.830078 
	C1683.393311,873.599915 1672.930542,863.200012 1669.721069,846.664062 
	C1667.261230,833.990845 1669.077515,822.081726 1676.570557,811.461975 
	C1688.533936,794.506653 1709.665649,791.305481 1726.514648,803.614502 
	C1727.220459,804.130188 1728.023438,804.513062 1729.950439,805.644165 
	C1729.950439,784.676880 1729.950439,764.599854 1729.950439,744.106323 
	C1738.215088,744.106323 1745.459839,744.106323 1753.264893,744.106323 
	C1753.264893,787.682678 1753.264893,831.059082 1753.264893,875.060303 
	C1746.204224,875.060303 1739.358276,875.060303 1731.948242,875.060303 
	C1731.395630,872.902893 1730.758301,870.414551 1729.858765,866.902832 
	C1721.671265,874.208130 1712.394409,877.792786 1700.891846,876.830078 
M1706.802002,817.284485 
	C1704.252686,818.797974 1701.358398,819.934631 1699.217651,821.894531 
	C1692.381470,828.152832 1690.963257,839.318726 1695.587891,847.639221 
	C1699.820312,855.254456 1708.335938,858.850159 1716.868408,856.625000 
	C1725.816162,854.291626 1731.672241,846.234741 1731.526245,836.458496 
	C1731.336060,823.718567 1722.265137,816.040771 1706.802002,817.284485 
z"/>
<path fill="#F7F7F9" opacity="1.000000" stroke="none" 
	d="
M1545.045166,864.921265 
	C1530.524780,850.552551 1529.503784,821.055908 1549.662598,804.978699 
	C1567.453369,790.790039 1595.054932,793.181152 1609.847656,810.897461 
	C1620.668091,823.856628 1622.287598,838.814331 1615.766113,853.930481 
	C1609.343872,868.816528 1597.219360,876.918701 1580.833984,878.129333 
	C1567.192383,879.137268 1555.201660,875.507385 1545.045166,864.921265 
M1595.719116,832.213135 
	C1594.569336,829.852051 1593.730957,827.265442 1592.213867,825.170349 
	C1586.685913,817.536072 1576.579468,815.215698 1568.312988,819.434814 
	C1559.899414,823.729004 1555.731445,833.570679 1558.290894,843.099609 
	C1560.509766,851.360901 1569.117065,857.732727 1577.627075,857.413757 
	C1586.717773,857.072998 1594.555786,850.003113 1595.867065,840.750000 
	C1596.188721,838.480469 1595.925537,836.127930 1595.719116,832.213135 
z"/>
<path fill="#F7F7F9" opacity="1.000000" stroke="none" 
	d="
M1362.592041,815.459229 
	C1366.490234,824.150452 1367.959717,832.542908 1367.676392,842.335571 
	C1349.373291,842.335571 1331.292480,842.335571 1313.313599,842.335571 
	C1312.631348,851.271301 1314.686279,855.179016 1321.070435,858.277710 
	C1329.982056,862.603027 1337.650513,860.270325 1348.459595,849.687195 
	C1353.926636,852.128601 1359.565796,854.646851 1365.791748,857.427246 
	C1362.325439,864.683960 1357.777100,869.885498 1351.444702,873.002014 
	C1335.341675,880.927185 1319.008057,880.868225 1304.118652,870.686829 
	C1289.237183,860.510803 1285.957397,844.990112 1289.179688,828.182678 
	C1294.567627,800.079407 1321.733643,790.000183 1345.292358,798.695557 
	C1353.060791,801.562927 1358.594116,807.321350 1362.592041,815.459229 
M1313.541992,823.012085 
	C1313.122070,824.871582 1312.702271,826.731018 1312.168945,829.093079 
	C1323.003784,829.093079 1333.160400,829.093079 1343.316528,829.093079 
	C1343.326538,817.873108 1336.950073,811.781494 1326.819336,812.979736 
	C1321.122070,813.653748 1316.883423,816.521301 1313.541992,823.012085 
z"/>
<path fill="#F7F7F9" opacity="1.000000" stroke="none" 
	d="
M1770.140259,818.290039 
	C1779.422485,799.476685 1798.601929,792.168091 1818.702393,797.290222 
	C1833.335205,801.019043 1843.677856,814.267639 1844.216187,829.306824 
	C1844.368042,833.549866 1844.239258,837.803040 1844.239258,842.814758 
	C1825.825562,842.814758 1808.327026,842.814758 1790.850098,842.814758 
	C1790.845581,851.969177 1793.392212,856.533203 1800.305176,858.817261 
	C1810.730469,862.261841 1819.311401,859.499146 1825.343872,849.186646 
	C1831.463623,851.951477 1837.108032,854.501587 1843.556641,857.414917 
	C1837.934448,869.275818 1828.726440,875.545654 1816.753052,877.442017 
	C1810.612061,878.414551 1804.023071,878.390503 1797.899780,877.316162 
	C1775.393433,873.367432 1762.658081,853.524353 1766.782959,829.496887 
	C1767.395630,825.927856 1768.813843,822.497131 1770.140259,818.290039 
M1817.898071,817.324341 
	C1804.206055,808.482483 1792.564575,813.403931 1790.782959,829.068970 
	C1800.993408,829.068970 1811.167725,829.068970 1822.763550,829.068970 
	C1821.288818,824.985718 1820.111450,821.725708 1817.898071,817.324341 
z"/>
<path fill="#F7F7F9" opacity="1.000000" stroke="none" 
	d="
M1655.891968,837.999390 
	C1655.891968,850.864685 1655.891968,862.730652 1655.891968,875.131470 
	C1647.818237,875.131470 1640.670898,875.131470 1632.815552,875.131470 
	C1632.815552,850.057312 1632.815552,825.062439 1632.815552,799.537231 
	C1640.115112,799.537231 1647.294189,799.537231 1655.891968,799.537231 
	C1655.891968,812.122620 1655.891968,824.561340 1655.891968,837.999390 
z"/>
<path fill="#F7F7F9" opacity="1.000000" stroke="none" 
	d="
M1236.682861,783.482727 
	C1236.794067,780.725159 1236.732422,778.681702 1237.225464,776.782410 
	C1239.966187,766.226074 1248.989990,759.494934 1259.184570,760.246338 
	C1269.627197,761.015991 1277.896118,769.323303 1278.507324,779.658569 
	C1279.129028,790.172119 1273.083740,799.020325 1263.465698,801.674316 
	C1253.035522,804.552490 1242.715820,799.440491 1238.160278,789.052490 
	C1237.498169,787.542725 1237.221191,785.864014 1236.682861,783.482727 
z"/>
<path fill="#F7F7F9" opacity="1.000000" stroke="none" 
	d="
M1455.847168,867.778442 
	C1457.653687,870.414795 1459.040283,872.499756 1461.157349,875.683167 
	C1457.562256,875.683167 1455.332642,875.671631 1453.103271,875.684937 
	C1431.952759,875.811523 1431.952759,875.812744 1420.948242,856.362793 
	C1424.917603,851.449890 1429.018555,846.373962 1433.923828,840.302551 
	C1441.510132,849.801392 1448.468628,858.514221 1455.847168,867.778442 
z"/>
<path fill="#F7F7F9" opacity="1.000000" stroke="none" 
	d="
M1293.079590,931.184326 
	C1296.237061,939.652283 1295.357666,944.337402 1290.584473,947.631653 
	C1286.129761,950.706055 1274.004150,951.244324 1270.642456,947.924438 
	C1269.188599,946.488770 1269.176025,943.593506 1268.274292,940.576782 
	C1273.843628,941.380859 1277.972656,942.206360 1282.134888,942.441467 
	C1283.422241,942.514160 1285.803345,941.098389 1285.914429,940.155762 
	C1286.107178,938.518982 1285.425659,936.087341 1284.210449,935.120117 
	C1281.657471,933.088257 1278.410156,931.959290 1275.647217,930.154419 
	C1270.275513,926.645447 1268.504761,922.166138 1269.952637,916.561890 
	C1271.122070,912.034790 1275.321167,908.927307 1281.218628,908.371155 
	C1282.859131,908.216492 1284.576050,908.148315 1286.176636,908.459106 
	C1288.737427,908.956482 1291.230469,909.803650 1294.447632,910.695801 
	C1293.875000,913.020325 1293.371460,915.063904 1292.760986,917.541992 
	C1290.360229,917.001099 1288.441895,916.085144 1286.641602,916.277039 
	C1283.959473,916.562988 1280.004028,916.835266 1279.009399,918.531677 
	C1276.952881,922.039429 1280.878784,923.344177 1283.348633,924.858826 
	C1286.442505,926.756042 1289.514648,928.688843 1293.079590,931.184326 
z"/>
<path fill="#F7F7F9" opacity="1.000000" stroke="none" 
	d="
M1500.605957,949.357605 
	C1495.813477,949.091248 1492.292236,947.975037 1487.826172,949.511536 
	C1479.810303,952.269287 1474.188721,947.633545 1473.825317,939.192139 
	C1473.541016,932.587769 1473.768311,925.961487 1473.768311,918.901855 
	C1476.408447,918.687378 1478.603760,918.509033 1482.257935,918.212158 
	C1482.257935,924.153748 1482.244507,929.633240 1482.262573,935.112610 
	C1482.275146,938.916748 1482.388306,942.928955 1487.653687,942.749084 
	C1492.368042,942.588074 1493.496582,938.867188 1493.659546,935.038635 
	C1493.883545,929.779419 1493.715698,924.503540 1493.715698,918.795166 
	C1496.556519,918.625854 1498.754395,918.494812 1501.441406,918.334656 
	C1501.441406,928.920349 1501.441406,939.011658 1500.605957,949.357605 
z"/>
<path fill="#F7F7F9" opacity="1.000000" stroke="none" 
	d="
M1770.765869,919.518616 
	C1772.834595,923.135010 1775.119019,926.260376 1775.472168,929.590454 
	C1776.129028,935.786621 1775.660645,942.102173 1775.660645,949.121582 
	C1772.686401,949.272827 1770.255493,949.396484 1766.737427,949.575378 
	C1766.737427,943.385132 1766.816284,937.809570 1766.708252,932.237610 
	C1766.642578,928.841614 1766.376465,925.179749 1761.717163,925.191711 
	C1757.614624,925.202271 1755.909058,928.033752 1755.813843,931.763062 
	C1755.671265,937.350891 1755.776855,942.945007 1755.776855,949.071533 
	C1752.639648,949.307434 1750.484253,949.469482 1747.140747,949.720947 
	C1746.498047,939.200012 1746.638550,929.183594 1747.076660,919.119995 
	C1755.294312,919.119995 1762.702271,919.119995 1770.765869,919.518616 
z"/>
<path fill="#F7F7F9" opacity="1.000000" stroke="none" 
	d="
M1700.049805,932.573853 
	C1698.812134,945.433655 1694.503174,950.177795 1684.835205,950.088135 
	C1676.703979,950.012756 1671.193115,945.085571 1670.061523,936.879150 
	C1668.829468,927.945496 1672.770020,920.618713 1679.982666,918.432434 
	C1687.981689,916.007629 1695.336548,919.301147 1698.875000,927.048462 
	C1699.545532,928.516724 1699.647705,930.244507 1700.049805,932.573853 
M1681.862915,942.062012 
	C1689.720215,942.507263 1693.196411,937.864441 1690.406006,929.852844 
	C1689.713501,927.864624 1686.957397,925.389160 1685.103882,925.350708 
	C1683.250488,925.312195 1679.998657,927.842468 1679.732056,929.605408 
	C1679.171875,933.310730 1680.165649,937.251099 1681.862915,942.062012 
z"/>
<path fill="#F7F7F9" opacity="1.000000" stroke="none" 
	d="
M1357.120850,917.973450 
	C1367.865723,921.979858 1371.564819,928.054810 1369.839844,937.750549 
	C1368.465088,945.477539 1363.197632,949.959961 1355.343506,950.086487 
	C1347.525879,950.212463 1341.932129,945.861267 1340.271240,938.362061 
	C1337.650391,926.529663 1343.653809,918.929260 1357.120850,917.973450 
M1350.523560,941.097656 
	C1353.115356,943.186462 1356.949097,944.281006 1358.402832,941.507568 
	C1360.202271,938.074646 1360.483276,933.486450 1360.185547,929.489380 
	C1360.065430,927.876953 1356.804565,925.629150 1354.730347,925.324951 
	C1353.244141,925.107056 1350.213379,927.400879 1349.880615,928.993774 
	C1349.171631,932.387939 1349.769653,936.055115 1350.523560,941.097656 
z"/>
<path fill="#F7F7F9" opacity="1.000000" stroke="none" 
	d="
M1211.154785,912.072510 
	C1209.852417,918.902039 1204.330322,914.669434 1200.636719,917.738098 
	C1200.636719,927.290466 1200.636719,937.756775 1200.636719,948.896118 
	C1197.538818,949.199646 1195.146362,949.434021 1191.873047,949.754700 
	C1191.873047,938.635925 1191.873047,928.177795 1191.873047,917.147461 
	C1189.690308,916.772156 1188.203735,916.452087 1186.700439,916.275513 
	C1185.070679,916.084229 1183.425293,916.026611 1181.489258,915.889648 
	C1180.059570,912.396912 1179.265503,909.070312 1184.472412,908.870361 
	C1192.399780,908.565918 1200.351562,908.754822 1208.286621,908.968811 
	C1209.249146,908.994812 1210.172607,910.472534 1211.154785,912.072510 
z"/>
<path fill="#F7F7F9" opacity="1.000000" stroke="none" 
	d="
M1836.427490,949.891479 
	C1832.716675,949.934448 1829.723755,950.033203 1826.759888,949.784546 
	C1822.464844,949.424194 1821.151001,946.888123 1822.402710,942.359741 
	C1826.719360,940.951721 1831.651855,946.520203 1836.570190,941.506897 
	C1835.361206,940.224609 1834.349365,938.686096 1832.936157,937.759705 
	C1830.737061,936.317932 1827.654297,935.814636 1826.064697,933.956604 
	C1824.108398,931.670044 1821.975464,928.198608 1822.370239,925.613708 
	C1822.762573,923.045715 1825.882812,919.475525 1828.362671,918.945496 
	C1833.277710,917.895081 1838.575317,918.635132 1844.756470,918.635132 
	C1844.036743,921.966003 1843.658691,923.715881 1843.254761,925.585144 
	C1839.075562,925.205811 1835.430542,924.875000 1831.785645,924.544189 
	C1831.506714,925.349304 1831.227661,926.154480 1830.948730,926.959656 
	C1833.237305,928.283875 1835.456909,929.750061 1837.829712,930.900574 
	C1841.860596,932.854919 1845.613647,935.042175 1845.569946,940.203857 
	C1845.523438,945.694702 1842.174194,948.534363 1836.427490,949.891479 
z"/>
<path fill="#F7F7F9" opacity="1.000000" stroke="none" 
	d="
M1565.934692,942.871094 
	C1570.524658,944.044128 1570.304443,946.794678 1568.105957,948.749207 
	C1563.353027,952.974976 1553.269775,949.384583 1552.124146,943.091125 
	C1551.479004,939.547058 1552.156250,935.775330 1551.651855,932.188599 
	C1551.193481,928.929749 1549.942017,925.782532 1548.678467,921.304199 
	C1549.386230,920.535217 1551.282959,918.826660 1552.753418,916.807617 
	C1556.388550,911.815918 1556.164917,911.893433 1560.494141,916.559143 
	C1561.590088,917.740295 1564.031250,917.567261 1565.672363,918.382568 
	C1566.963501,919.023987 1567.974976,920.228394 1569.110596,921.182800 
	C1567.908691,922.408020 1566.885620,923.946350 1565.451660,924.765564 
	C1564.159302,925.504089 1562.416748,925.455017 1560.271729,925.869385 
	C1560.271729,930.195007 1560.316284,934.125122 1560.258057,938.053650 
	C1560.208740,941.376953 1561.917847,942.857300 1565.934692,942.871094 
z"/>
<path fill="#F7F7F9" opacity="1.000000" stroke="none" 
	d="
M1648.787598,773.836060 
	C1655.544434,776.764465 1657.107178,780.336731 1655.792114,787.097961 
	C1654.750000,792.455872 1650.863403,792.602356 1646.710449,792.532593 
	C1645.382812,792.510254 1644.054077,792.547363 1642.726318,792.528137 
	C1633.099121,792.388916 1631.114258,790.021912 1632.094727,780.518616 
	C1632.547485,776.129028 1634.565552,773.840942 1639.027710,773.841064 
	C1642.015747,773.841125 1645.003662,773.825684 1648.787598,773.836060 
z"/>
<path fill="#F7F7F9" opacity="1.000000" stroke="none" 
	d="
M1416.761963,914.793762 
	C1416.954102,911.608032 1417.146118,909.328796 1417.367065,906.704102 
	C1419.973145,906.704102 1422.212402,906.704102 1424.989014,906.704102 
	C1424.989014,920.818970 1424.989014,934.677551 1424.989014,949.127563 
	C1422.610229,949.297668 1420.437012,949.453125 1416.761719,949.716003 
	C1416.761719,938.049683 1416.761719,926.874939 1416.761963,914.793762 
z"/>
<path fill="#F7F7F9" opacity="1.000000" stroke="none" 
	d="
M1175.526123,922.356201 
	C1175.526123,931.578308 1175.526123,939.857483 1175.526123,948.841553 
	C1172.618042,949.190247 1170.178955,949.482666 1166.979004,949.866333 
	C1166.979004,936.171570 1166.979004,923.091858 1166.979004,909.397217 
	C1169.554688,909.397217 1172.005615,909.397217 1175.526123,909.397217 
	C1175.526123,913.618225 1175.526123,917.515686 1175.526123,922.356201 
z"/>
<path fill="#F7F7F9" opacity="1.000000" stroke="none" 
	d="
M1614.761963,926.734985 
	C1614.959717,923.561951 1615.157471,921.283875 1615.383179,918.683594 
	C1617.996460,918.683594 1620.235352,918.683594 1623.000244,918.683594 
	C1623.000244,928.865662 1623.000244,938.727234 1623.000244,949.150085 
	C1620.565308,949.304443 1618.384033,949.442749 1614.761719,949.672363 
	C1614.761719,941.997742 1614.761719,934.813843 1614.761963,926.734985 
z"/>
<path fill="#F7F7F9" opacity="1.000000" stroke="none" 
	d="
M1617.086792,914.149658 
	C1613.036865,910.744873 1613.781494,907.922058 1617.852539,906.690918 
	C1619.371704,906.231506 1622.919434,907.829529 1623.316772,909.155884 
	C1624.674561,913.688538 1621.595337,914.725037 1617.086792,914.149658 
z"/>
<path fill="#010333" opacity="1.000000" stroke="none" 
	d="
M1707.540649,817.033081 
	C1722.265137,816.040771 1731.336060,823.718567 1731.526245,836.458496 
	C1731.672241,846.234741 1725.816162,854.291626 1716.868408,856.625000 
	C1708.335938,858.850159 1699.820312,855.254456 1695.587891,847.639221 
	C1690.963257,839.318726 1692.381470,828.152832 1699.217651,821.894531 
	C1701.358398,819.934631 1704.252686,818.797974 1707.540649,817.033081 
z"/>
<path fill="#010333" opacity="1.000000" stroke="none" 
	d="
M1595.825195,833.013367 
	C1595.925537,836.127930 1596.188721,838.480469 1595.867065,840.750000 
	C1594.555786,850.003113 1586.717773,857.072998 1577.627075,857.413757 
	C1569.117065,857.732727 1560.509766,851.360901 1558.290894,843.099609 
	C1555.731445,833.570679 1559.899414,823.729004 1568.312988,819.434814 
	C1576.579468,815.215698 1586.685913,817.536072 1592.213867,825.170349 
	C1593.730957,827.265442 1594.569336,829.852051 1595.825195,833.013367 
z"/>
<path fill="#010333" opacity="1.000000" stroke="none" 
	d="
M1313.848755,822.299866 
	C1316.883423,816.521301 1321.122070,813.653748 1326.819336,812.979736 
	C1336.950073,811.781494 1343.326538,817.873108 1343.316528,829.093079 
	C1333.160400,829.093079 1323.003784,829.093079 1312.168945,829.093079 
	C1312.702271,826.731018 1313.122070,824.871582 1313.848755,822.299866 
z"/>
<path fill="#010333" opacity="1.000000" stroke="none" 
	d="
M1818.416016,817.895020 
	C1820.111450,821.725708 1821.288818,824.985718 1822.763550,829.068970 
	C1811.167725,829.068970 1800.993408,829.068970 1790.782959,829.068970 
	C1792.564575,813.403931 1804.206055,808.482483 1818.416016,817.895020 
z"/>
<path fill="#010333" opacity="1.000000" stroke="none" 
	d="
M1681.192261,941.578491 
	C1680.165649,937.251099 1679.171875,933.310730 1679.732056,929.605408 
	C1679.998657,927.842468 1683.250488,925.312195 1685.103882,925.350708 
	C1686.957397,925.389160 1689.713501,927.864624 1690.406006,929.852844 
	C1693.196411,937.864441 1689.720215,942.507263 1681.192261,941.578491 
z"/>
<path fill="#010333" opacity="1.000000" stroke="none" 
	d="
M1350.177856,940.354004 
	C1349.769653,936.055115 1349.171631,932.387939 1349.880615,928.993774 
	C1350.213379,927.400879 1353.244141,925.107056 1354.730347,925.324951 
	C1356.804565,925.629150 1360.065430,927.876953 1360.185547,929.489380 
	C1360.483276,933.486450 1360.202271,938.074646 1358.402832,941.507568 
	C1356.949097,944.281006 1353.115356,943.186462 1350.177856,940.354004 
z"/>
</svg>